<?xml version="1.0" encoding="utf-8"?>
<!-- Generator: Adobe Illustrator 26.0.1, SVG Export Plug-In . SVG Version: 6.00 Build 0)  -->
<svg version="1.1" id="Layer_1" xmlns="http://www.w3.org/2000/svg" xmlns:xlink="http://www.w3.org/1999/xlink" x="0px" y="0px"
	 viewBox="0 0 381.9 130.9" style="enable-background:new 0 0 381.9 130.9;" xml:space="preserve">
<style type="text/css">
	.st0{fill:#FFFFFF;}
</style>
<path class="st0" d="M362.4,96.9c0.1,1.4,1.3,5.2-0.2,6.2c-0.9-0.5-0.4-2.2-0.7-3.1c-0.4-1.2-1-9.5-1-10.4
	c-0.4-5.5-0.8-10.9-0.3-16.6c0-0.1,0.2-0.1,0.2-0.2c0.2,0,0.2,0.1,0.3,0.1c0.9,2.7,1.1,6.1,1.5,8.9
	C362.6,83.9,362.2,94.8,362.4,96.9z M108.9,79.2c1.3-2.1,1.9-4.5,1.9-7c0.2-1.6-0.5-3.2-1.8-4.2c-1.3-0.9-2.8-1.4-4.3-1.4
	c-1.4,0-2.7,0.3-3.9,0.9c-1.3,0.6-2.5,1.3-3.7,2.2c-1.2,0.9-2.2,1.9-3.3,3c-1,1.1-1.9,2.1-2.7,3l-0.1,7c0,2,0,3.7-0.1,5.3
	s0,3.2,0,4.7c2.3-1,4.5-2.1,6.7-3.3c2.3-1.3,4.4-2.8,6.4-4.5C106,83.3,107.6,81.3,108.9,79.2z M378.1,42.8
	c1.7,4.9,1.8,12.6,1.8,17.8c-0.1,8-0.3,16-0.6,24c-0.5,13.5,3.1,31.5-8,41.9c-4.2,3.9-11.1,5.9-16.4,3.1c-4.9-2.6-11.3,0.5-14.7-6
	c-6.9,5.9-16.3,7.9-25,5.3c-2.2-0.6-4.4-1.5-6.4-2.6c-2.9-1.6-2.2-2.7-5.3-0.7c-4,2.7-8.8,4.2-13.6,4.2c-3.7,0-7.3-0.7-10.8-2
	c-1.9-0.7-3.7-1.6-5.5-2.7c-1.2,1.1-2.7,2-4.3,2.6c-7.4,2.8-15.8-0.3-19.6-7.3c-5.2,12.5-29,12.3-28.1-3.6
	c-10.5,8.3-23.6,14.8-37.2,10.9c-2.6-0.8-3.5-2.1-6-0.7c-1.1,0.6-2.2,1-3.4,1.3c-2.6,0.7-5.4,0.5-7.9-0.5c-5.5-2.2-8-7.7-9.2-13.2
	c-3.6,4-8.7,6.3-14,6.2c-2.5,0-3.2,2.6-5.1,4.1c-2.1,1.6-4.5,2.7-7.1,3c-2.4,0.3-4.9,0-7.1-0.9c-3,0.8-6.1,0.5-8.8-1.1
	c-4.8-2.8-8.8-6.5-13-10c-1.7,6.9-8,11.1-14.9,11.1c-2.4,0-7.2-2.4-9.3-1.4c-2.9,1.3-8.5,1.9-11.6,1.6c-16-1.2-12.5-17.9-15.5-29.7
	c-4.2,1.1-10.1,1.6-12.1,5.8c-2.1,4.4-4.2,8.7-6.3,13.1c-3.1,6.5-6.6,12.4-14.5,13c-13,1-23.1-10.6-16.8-22.9
	c8.3-16.2,17-32.3,24.1-49.1c3.3-7.8,6.5-15.6,9.4-23.5c2.9-7.7,8.2-16,16.6-18.2c20.9-5.4,21.9,20.7,23.4,34.1
	c0.4,3.9,0.9,7.8,1.3,11.8c2.8,0.4,7.7-6,10.4-7.7c7.2-4.5,16-7,24.4-4.9c3.7,0.9,7.1,2.9,9.8,5.6c2.8,2.9,6.6,0.1,10.8,1.2
	c8.5,2.1,11,10.8,12.4,18.4c3-9.1,5-23.2,16-25.7c8.3-1.9,16.3,2.6,18.4,11c5.2-5.6,12.6-10,20.5-9.7c3.5,0.1,7,1.3,9.9,3.3
	c3.7,2.6,2.5,2.8,6.9,1.9c5-1.1,10-2.1,15.1-3.2c3.7-0.8,10.3-0.6,11.1-4.4c0.4-2,1.1-4,2-5.9c-0.4-1.3-0.6-2.7-0.6-4.1
	c0-3.9,1.8-7.6,4.9-9.9c2.4-1.8,5.7-1.5,7.7-3.4c4.2-3.9,9.9-6,15.4-3.1c1.7,0.9,3.1,2.2,4.2,3.7c1.9,0.1,3.8,0.4,5.5,1.1
	c2.6,1,4.8,2.8,6.2,5.2c2.1,3.7,2.2,8.2,0.2,11.9c-1.3,2.5-2.6,2.2-1.8,5.1c0.2,0.9,0.4,1.8,0.5,2.8c5.8-0.4,11.5,1.6,15.9,5.4
	c2.6,2.3,5.5-1.6,8.6-3c2.8-1.2,5.8-2,8.9-2.1c-2-3.3-1.9-7.8-4.3-10.5c-2.6-3.3-3.5-7.7-2.2-11.8c1.5-5,5.9-11.4,11.6-11.8
	c-1.1-6.2,2-12.3,7.5-15.2c3-1.7,6.6-2.4,10-1.9c3,0.5,4.7,2.9,7.2,1.5c4.4-2.6,10.1-1.1,12.7,3.3c0.2,0.3,0.3,0.6,0.5,0.9
	c3.5,2.6,7.5,4.5,11.2,7.1c6,4.2,8.4,10.3,7.4,17.3c-0.3,2-2.8,4.4-4.3,5.5C374.4,37.8,377,39.6,378.1,42.8z M77.1,74.8
	c-0.4-2.1-10.5-0.3-10.5-0.3l-0.1-1.5c0-0.4-0.1-1.2-0.2-2.4c-0.1-1.2-0.3-3.2-0.6-6.1s-0.7-6.7-1.2-11.5s-1.2-11-2.1-18.7l-0.1-0.8
	c-0.1-0.3-0.2-0.7-0.3-1.1c-0.3-0.9-0.6-1.7-1.1-2.6c-0.4-0.8-1-1.5-1.6-2.1c-0.5-0.5-1.2-0.8-1.9-0.9c-1.6-0.2-3.2,0.2-4.5,1.1
	c-1.5,1.2-2.8,2.6-3.8,4.2c-1.2,1.9-2.2,3.9-2.9,6c-0.9,2.3-1.6,4.4-2.2,6.2c-0.2,0.7-0.4,1.2-0.6,1.7c-0.2,0.5-0.4,1.1-0.6,1.6
	c-0.2,0.5-0.7,1.6-1.4,3.3s-1.5,3.6-2.5,5.8s-2.1,4.8-3.2,7.4s-2.3,5.4-3.4,8l-21.1,41.4c-0.3,1.2,0.1,2.4,1,3.2
	c1,0.8,2.2,1.4,3.5,1.5c1,0.1,2.1,0.1,3.1,0c0.9-0.1,1.7-1.3,2.2-2.2c1.7-3.5,3.4-7.2,5.2-10.9s3.5-7.3,5.2-10.9l0,0
	c0.7-1,1.6-1.9,2.7-2.4c1.5-0.8,3-1.4,4.5-2c1.7-0.6,3.5-1.3,5.5-1.8s3.9-1.1,5.6-1.5s3.4-0.7,4.8-1.1c1.9-0.6,3.9-0.6,5.7,0
	c1.4,1.8,2.4,22.6,3,24.9s0.6,5.3,4.5,5c3-0.3,2.7-3,2.4-5.6c-0.3-3-2.9-22.7-2.6-25.4c0.1-1,1.9-2.2,2.8-2.7
	C73.2,80.1,77.6,77.6,77.1,74.8z M123.7,111.2c-0.7-1.3-1.7-2.5-2.7-3.5c-1.2-1.2-2.6-2.5-4.2-3.8s-3.2-2.5-4.9-3.7l-4.8-3.4
	c-0.7-0.5-1.4-1-2.1-1.4c-0.6-0.4-1.2-0.8-1.8-1.2c1.6-1.4,3.3-2.8,4.9-4.4c1.6-1.5,3-3.2,4.2-5c1.2-1.8,2.2-3.7,3-5.7
	c0.8-2.1,1.2-4.3,1.2-6.5c0.1-2-0.2-3.9-0.8-5.8c-0.5-1.5-1.3-2.9-2.4-4c-1-1-2.2-1.8-3.6-2.3c-1.4-0.5-2.9-0.7-4.5-0.7
	c-2,0-4.1,0.3-6,1c-2.1,0.7-4.2,1.7-6.1,2.9c-2,1.3-3.8,2.8-5.5,4.5c-1.6,1.7-3,3.6-4,5.7c0.1,3.8,0.2,7.4,0.3,10.8
	c0.2,3.5,0.3,6.9,0.4,10.2c0.1,3.3,0.3,6.5,0.4,9.7c0.1,2.2,0.2,4.4,0.2,6.6c-0.1,1-0.1,1.9,0.1,2.9c0.1,0.2,0.1,0.4,0.2,0.6
	c0.7,1.3,2,1.2,3.2,1.1c0.6,0,1.3-0.2,1.8-0.5c0.5-0.3,0.9-0.8,1.2-1.3c0.3-0.7,0.4-1.5,0.4-2.3c-0.3-3.2-0.5-5.9-0.6-8.2
	s-0.2-4.5-0.3-6.6c2.5,0.8,5,1.8,7.4,3c2.2,1.1,4.2,2.2,5.9,3.3c1.7,1,3.3,2.2,4.8,3.4c1.4,1.2,2.8,2.3,4,3.3s2.7,2.3,4.1,3.4
	c1,0.8,2.4,2.2,3.7,2.5c1.3,0.3,2.7-0.3,3.3-1.6C124.4,113.2,124.3,112.1,123.7,111.2z M175.4,109c-1.2-7.6-2.4-15.1-3.6-22.4
	c-1.2-7.3-2.4-14.5-3.6-21.7c0-0.9-0.1-1.8-0.3-2.7c-0.2-0.7-0.5-1.3-1.1-1.9c-0.5-0.5-1.2-0.7-1.9-0.8c-0.9,0-1.8,0.2-2.6,0.7
	c-0.3,0.2-0.6,0.4-0.8,0.6c-0.4,0.6-0.6,1.3-0.9,2c-0.4,0.8-0.7,1.6-1,2.5c-0.6,1.6-1.2,3.2-1.7,4.8c-1.1,3.4-2.2,6.6-3.2,9.9
	c-0.8,2.7-1.6,5.2-2.5,7.8s-1.7,4.8-2.6,6.8c-0.7,1.8-1.6,3.5-2.7,5.1c-0.7,1.2-1.6,2.1-2.8,2.9c-1.9-0.7-3.4-2-4.5-3.6
	c-1.3-1.9-2.2-4.1-2.9-6.3c-0.8-2.5-1.4-5-1.9-7.5c-0.5-2.6-0.9-5.1-1.2-7.4c-0.3-1.7-0.6-3.2-0.9-4.7c-0.2-1.2-0.6-2.4-1.1-3.6
	c-0.3-0.8-0.8-1.6-1.5-2.2c-0.6-0.5-1.3-0.6-2-0.3c-0.5,0-1,0.1-1.5,0.4c-0.3,0.2-0.5,0.5-0.7,0.9c-0.1,0.4-0.2,0.7-0.2,1.1
	c0,0.4,0,0.7,0,1.1v0.3c0.1,7.9,0.2,15.4,0.2,22.5c0,4.1,0,8.2,0.1,12.2c0,2,0.1,4,0.1,6c0.1,2.4,0.6,5,3.7,5.1c0.9,0,1.8-0.3,2.4-1
	c0.7-0.8,1.1-1.9,1-3c0-1.9,0-3.8,0.1-5.7c0-1.9,0.1-3.8,0.2-5.7c0.5,1.1,1.2,2.1,1.9,3.1c0.7,1,1.4,1.8,2.3,2.6
	c0.9,0.7,1.8,1.3,2.9,1.8c1.1,0.5,2.4,0.7,3.6,0.7c1.7,0,3.3-0.6,4.6-1.7c1.4-1.2,2.5-2.7,3.4-4.3c1-1.8,1.8-3.6,2.5-5.6
	c0.7-2,1.4-3.8,1.9-5.5c1-3,2.1-6,3.1-8.9s2-5.8,3-8.8c0.5,1.7,1,3.5,1.4,5.6c0.4,2.1,0.8,4.2,1.2,6.5c0.4,2.3,0.7,4.5,1.1,6.9
	c0.3,2.3,0.6,4.5,0.9,6.7c0.3,2.3,0.6,4.5,0.9,6.5c0.3,2,0.7,3.8,1,5.3c0.3,1.2,0.7,2.4,1.2,3.6c0.5,0.9,1,1.3,1.6,1.4
	c0.8-0.1,1.5-0.5,1.9-1.1c0.5-0.7,0.8-1.4,1-2.2c0.2-0.9,0.3-1.7,0.3-2.6C175.4,110.6,175.4,109.8,175.4,109z M257.1,42.6
	c-1.6,2.4-3.6,5.4-3.8,8.3c0,0.7,0.4,1.4,1,1.7c0.2,0.1,0.3,0.1,0.5,0.1c0.5,0.1,1-0.1,1.4-0.5c1.7-1.4,3.6-2.6,5.6-3.5
	c0.9-0.5,1.9-1,2.8-1.5c2.8,1.9,5.3,4.1,7.7,6.4c0.7,0.7,1.7,0.7,2.4,0.1c0.4-0.4,0.6-1,0.5-1.5c-0.6-3.3-2.5-6.4-4.4-9.3
	c0.6-0.4,1.2-0.9,1.9-1.3c0.9-0.5,1.7-1.2,2.6-1.7c1-0.5,1.8-1.1,2.5-2c1.2-2.3-7.6-1.1-8.6-1c-0.6,0.1-1.3,0.2-1.9,0.2
	s-0.6-4.5-0.7-5c-0.3-1.4-1.4-0.4-2.2,0.3c-1.6,1.4-3,3-4.1,4.9c-1.4-0.1-2.7-0.2-4.1-0.4c-1.8-0.2-1.7,1.3-1,2.3
	c0.4,0.6,1,1.1,1.4,1.7S257.6,41.8,257.1,42.6z M223.4,94.1c-2.1-1.1-5.9,3.8-8.8,6.3c-2.1,1.9-4.2,3.6-6.5,5.2
	c-2.2,1.5-4.7,2.8-7.2,3.8c-2.5,0.9-5.1,1.4-7.8,1.4c-0.9,0-1.9-0.1-2.8-0.2c-0.8-0.1-1.6-0.4-2.3-0.9c-0.7-0.4-1.2-1-1.6-1.7
	c-0.4-0.8-0.6-1.8-0.6-2.7c0-1.7,0.5-3.4,1.4-4.9c0.9-1.6,2.1-3,3.4-4.2c1.4-1.3,2.9-2.5,4.5-3.6c1.6-1.1,3.2-2.1,4.7-3
	c1.9-1.1,3.7-2.4,5.4-3.8c1.5-1.2,2.3-2.4,2.3-3.8c0-0.6-0.1-1.2-0.5-1.7c-0.3-0.4-0.7-0.7-1.1-0.9c-0.4-0.2-0.9-0.3-1.4-0.3l-1.1,0
	c-1.3,0.1-2.5,0.4-3.6,1c-1.2,0.7-2.4,1.4-3.5,2.1c-1.2,0.9-2.5,1.6-3.8,2.3c-1.2,0.6-2.5,1-3.8,0.9c-0.9,0-1.7-0.3-2.3-0.9
	c-0.5-0.6-0.7-1.3-0.7-2c0.1-1.5,0.4-3,1.1-4.4c0.7-1.6,1.6-3.2,2.6-4.7c1-1.4,2.1-2.7,3.4-3.9c1-0.9,2.1-1.6,3.5-2
	c1.2-0.2,2.4,0.1,3.3,0.8c1.1,0.7,1.8,1.8,2.2,3c1.2,0,2.4-0.3,3.4-1c0.7-0.5,1.1-1.4,1.1-2.2c0-0.7-0.2-1.5-0.5-2.1
	c-0.4-0.8-0.9-1.5-1.5-2.1c-0.6-0.7-1.4-1.3-2.2-1.7c-0.8-0.5-1.7-0.7-2.6-0.8c-2.7,0-5.3,0.7-7.6,2.2c-2.3,1.5-4.4,3.4-6.1,5.6
	c-1.7,2.3-3.2,4.7-4.3,7.4c-1.1,2.4-1.8,5-2.2,7.6c-0.2,1.1,0,2.3,0.4,3.4c0.4,0.9,1,1.6,1.8,2.2c0.7,0.5,1.6,1,2.5,1.2
	c0.8,0.2,1.6,0.4,2.4,0.6c-0.2,0.3-0.4,0.5-0.6,0.8c-0.2,0.3-0.5,0.6-0.7,0.9c-0.7,0.9-1.4,1.8-2.1,2.9c-0.7,1-1.4,2.1-2,3.2
	c-0.6,1.1-1.1,2.3-1.5,3.5c-0.4,1.2-0.6,2.5-0.5,3.8c-0.1,1.9,0.4,3.7,1.5,5.3c1,1.4,2.3,2.6,3.8,3.4c1.6,0.9,3.2,1.5,5,1.8
	c1.7,0.3,3.4,0.5,5.1,0.5c1.7-0.1,3.3-0.4,4.9-1c2.2-0.8,4.2-1.7,6.3-2.8c2.3-1.2,4.5-2.5,6.6-4c2.1-1.5,4.1-3.1,6-4.9
	c1.7-1.6,3.1-3.3,4.4-5.3C223.5,98.1,225.1,95,223.4,94.1z M266.7,114.7c-0.1-0.5-0.2-1-0.3-1.5c-0.1-0.8-0.4-2-0.6-3.6
	s-0.5-3.5-0.8-5.8s-0.5-4.9-0.6-7.9s-0.3-6.2-0.2-9.7c0-1.6,0-3.2,0-4.8s0-3.1,0-4.6c-0.1-2.4,0.8-6.2-1.4-8
	c-3.2-2.6-4.3,4.9-4.4,6.4c-0.1,2.5-0.2,5.1-0.3,7.9s-0.1,5.7-0.1,8.7s0,5.8,0.1,8.4s0.1,5.1,0.3,7.2s0.3,3.9,0.5,5.1
	c0.1,0.4,0.2,0.9,0.5,1.5c0.2,0.6,0.5,1.1,0.8,1.6c0.4,0.5,0.8,0.9,1.3,1.3c0.6,0.4,1.2,0.6,1.9,0.6c0.8,0.1,1.5-0.1,2.2-0.4
	c0.4-0.2,0.8-0.6,0.9-1C266.7,115.6,266.8,115.1,266.7,114.7L266.7,114.7z M269.6,62.6c0.1-1.2-0.6-2.4-1.7-2.9
	c-2.7-1.1-6-1-8.9-0.7c-3.5,0.3-7,0.8-10.4,1.3s-6.7,1.1-10,1.8c-3.3,0.7-6.5,1.4-9.6,2.1l-3.6,0.8c-0.9,0.2-1.6,0.4-2.1,0.5
	l-1.1,0.2l-0.5,0.1l0.1-0.1c-0.9,0.1-2,0.3-3.1,0.6c-1.1,0.2-2.2,0.6-3.2,1c-1,0.4-1.8,0.9-2.6,1.6c-0.7,0.6-1.1,1.5-1.1,2.4
	c-0.1,1.1,0.4,2.2,1.4,2.8c1.7,0.9,3.4,0.4,5.2,0s3.8-1,5.6-1.5c2.7-0.7,5.4-1.4,8.2-2c0.2,4,0.4,7.6,0.6,10.8s0.3,6.5,0.4,9.7
	s0.1,6.5,0.1,10s0,7.4-0.1,11.7c0,1.2-0.5,2.9,0.1,4s2.1,1.2,3.3,1c0.7-0.1,1.4-0.3,2-0.8c0.5-0.4,0.8-1,1-1.6
	c0.2-0.8,0.3-1.6,0.3-2.4c0-2.5-0.1-5.1-0.1-8s-0.1-5.7-0.1-8.7s-0.1-5.8-0.2-8.6s-0.2-5.4-0.2-7.9s-0.2-4.5-0.3-6.4
	c-0.1-1.4-0.2-2.8-0.5-4.2c0.4-0.1,0.8-0.2,1.2-0.3c0.3-0.1,0.6-0.2,0.9-0.3l0.9-0.3l1.4-0.4c3.5-0.9,7.6-1.8,12.1-2.7
	c4.1-0.8,8.3-1.1,12.4-1.6C268.7,63.8,269.3,64.1,269.6,62.6L269.6,62.6z M306.7,100.7c0.1-1.6-0.5-3.1-1.4-4.3
	c-1.1-1.3-2.3-2.3-3.8-3.1c-1.7-1-3.5-1.8-5.3-2.3c-2-0.7-4-1.3-6.1-2c-1.7-0.5-3.4-1-5-1.6c-1.5-0.5-3-1-4.4-1.7
	c-1.1-0.5-2.2-1.2-3.1-2.1c-0.7-0.7-1.2-1.6-1.2-2.5c0-1.5,0.4-3,1-4.3c0.6-1.4,1.4-2.7,2.5-3.8c1-1.1,2.2-2,3.5-2.7
	c1.2-0.7,2.6-1,4-1c1.2-0.1,2.4,0.4,3.1,1.4c0.6,1,1,2.1,1.1,3.3c0.1,1.3,0.1,2.6,0,3.9c-0.1,1.4-0.2,2.5-0.2,3.4
	c-0.1,1.1,0.2,2.1,0.7,3.1c0.4,0.7,1,1.2,1.6,1.6c0.6,0.3,1.2,0.3,1.8,0.2c0.6-0.1,1-0.5,1.3-1.1c0.3-1.1,0.6-2.2,0.8-3.1
	s0.4-1.9,0.5-2.7s0.2-1.7,0.3-2.5s0.1-1.7,0.1-2.7c0-1.5-0.2-3-0.6-4.5c-0.4-1.3-1.1-2.6-2-3.6c-0.9-1-2-1.9-3.3-2.5
	c-1.4-0.6-2.9-0.9-4.5-0.9c-2.5,0-4.9,0.6-7.1,1.8c-2.2,1.2-4.2,2.8-5.9,4.8c-1.7,2-3,4.2-4,6.6c-1,2.3-1.5,4.8-1.5,7.3
	c0,1.5,0.5,3,1.5,4.2c1.1,1.3,2.5,2.3,4,3.1c1.7,0.9,3.5,1.7,5.3,2.3c1.9,0.7,3.8,1.2,5.6,1.7s3.5,0.9,5.1,1.4
	c1.5,0.5,3.1,1,4.5,1.7c1.2,0.5,2.3,1.3,3.2,2.2c0.8,0.8,1.2,1.9,1.2,3c0,1.2-0.4,2.5-1.1,3.5c-0.7,1.2-1.7,2.2-2.8,3.1
	c-1.1,0.9-2.3,1.7-3.6,2.2c-1.2,0.5-2.4,0.8-3.7,0.9c-0.6,0-1.2,0-1.9-0.1c-0.6-0.1-1.3-0.3-1.8-0.6c-0.8-0.4-1.6-0.8-2.3-1.3
	c-1.1-0.8-2.1-1.6-3.1-2.4c-1,0.8-1.7,1.9-2.1,3.1c-0.2,0.9-0.1,1.8,0.3,2.7c0.5,0.9,1.2,1.6,2,2.2c1,0.7,2,1.2,3.1,1.6
	c1.1,0.4,2.3,0.8,3.5,1c1.1,0.2,2.2,0.4,3.3,0.4c2.2,0,4.3-0.6,6.2-1.6c2-1.1,3.8-2.5,5.4-4.2c1.6-1.7,2.9-3.7,3.8-5.8
	C306.3,105,306.7,102.9,306.7,100.7z M340.3,100.9c0.1-1.6-0.4-3.1-1.4-4.3c-1.1-1.3-2.3-2.3-3.8-3.2c-1.7-1-3.5-1.8-5.3-2.4
	c-2-0.7-4-1.3-6.1-1.9c-1.7-0.5-3.4-1.1-5-1.6c-1.5-0.5-3-1.1-4.4-1.8c-1.1-0.5-2.2-1.2-3.1-2.1c-0.7-0.7-1.2-1.6-1.2-2.5
	c0-1.5,0.4-2.9,1-4.3c0.6-1.4,1.4-2.7,2.5-3.8c1-1.1,2.2-2,3.5-2.7c1.2-0.7,2.6-1,4-1c1.2-0.1,2.4,0.4,3.1,1.4c0.6,1,1,2.1,1.1,3.3
	c0.1,1.3,0.1,2.6,0,3.9c-0.1,1.4-0.2,2.5-0.2,3.3c-0.1,1.1,0.2,2.1,0.7,3.1c0.4,0.7,0.9,1.2,1.6,1.6c0.6,0.3,1.2,0.4,1.8,0.2
	c0.6-0.1,1-0.5,1.3-1.1c0.3-1.1,0.6-2.2,0.8-3.1s0.4-1.8,0.5-2.7s0.2-1.7,0.3-2.5s0.1-1.7,0.1-2.7c0-1.5-0.2-3-0.6-4.5
	c-0.4-1.3-1.1-2.6-2-3.6c-0.9-1-2-1.9-3.3-2.5c-1.4-0.6-3-0.9-4.5-0.9c-2.5,0-4.9,0.6-7.1,1.8c-2.2,1.2-4.2,2.9-5.9,4.8
	c-1.7,2-3,4.2-4,6.6c-1,2.3-1.5,4.8-1.5,7.3c0,1.5,0.5,3,1.5,4.2c1.1,1.3,2.5,2.4,4,3.1c1.7,0.9,3.5,1.7,5.3,2.3
	c1.9,0.7,3.8,1.2,5.6,1.7c1.7,0.4,3.5,0.9,5.1,1.4c1.5,0.4,3,1,4.5,1.7c1.2,0.5,2.3,1.3,3.2,2.2c0.8,0.8,1.2,1.9,1.2,3
	c0,1.2-0.4,2.5-1.1,3.5c-0.7,1.2-1.7,2.2-2.8,3.1c-1.1,0.9-2.3,1.7-3.6,2.2c-1.2,0.5-2.4,0.8-3.7,0.9c-0.6,0-1.2,0-1.9-0.1
	c-0.6-0.1-1.3-0.3-1.8-0.5c-0.8-0.4-1.5-0.8-2.3-1.3c-1.1-0.8-2.1-1.6-3.1-2.4c-1,0.8-1.7,1.9-2.1,3.1c-0.2,0.9-0.1,1.8,0.3,2.7
	c0.5,0.9,1.2,1.6,2,2.2c1,0.7,2,1.2,3.1,1.6c1.1,0.4,2.3,0.8,3.5,1c1.1,0.2,2.2,0.4,3.3,0.4c2.2,0,4.3-0.5,6.2-1.6
	c2-1.1,3.8-2.5,5.4-4.2c1.6-1.7,2.9-3.7,3.8-5.8C339.8,105.3,340.3,103.1,340.3,100.9L340.3,100.9z M369.3,20
	c-0.8-0.6-6.3-2-9.5-3.7c-1.9-1-0.7-2.2-1.7-3.3c-0.7-0.7-2.6-1.2-2.9-2.2c-0.2-0.6,0.2-2.1-0.8-1.7c-0.8,0.3-0.8,1.4-0.6,1.9
	c0.4,0.9,0.8,1.3,0,2.2c-1,1.1,0.2,2.5,0.6,3.2c-0.9,0.2-5.7,5.4-7.2,3c0-2.2,0.5-3.9-1.4-5.6c-1.1-0.9-1.3-2.5-2.1-3.7
	c-1.8-2.5-6.1-1.6-8.3,0.5c-1.3,1.1-2,2.8-1.8,4.5c0.1,1.5,1.3,2.6,1.2,4.2s2.1,3.1,2.8,4.5c0.7,1.4,1.9,1.7,2.6,2.8
	c1,1.4-1.3,3-2.2,3.8c-1.9,1.7-3.1,4-3.5,6.5c-0.2,0.7-0.4,4.9-1.3,5.7c-1.5,1.5-4.1-4.9-4.7-5.9c-0.4-0.7-0.2-1.3-0.4-2.1
	c-0.3-2-1-3.9-2.1-5.6c-0.6-0.9,0.8-3.5-0.5-3.2c-1.1,0.5-1.2,2.1-1.3,2.9c-1.5,0.4-3,2.4-2.5,5.2c0.3,1,1.1,1.7,2.1,2
	c0.8,0.2,1.1,0.9,1.3,1.9c0.4,1.6,2.9,9.8,4.5,11.9c0.8,1.1,2,3.3,3.6,2.8c1.5-0.5,5.6-5.1,6-6.4c0.2-0.9,1.6-3.1,2.6-3.1
	c1.3,0,2.8,2.9,3.6,3.8c0.5,0.6,2.5,3.4,2.9,4c0.8,1.2,1.7,2,1,7.3c-1,7.2,0.4,20.1,0.5,21.1s1.4,8,2,10.5c0.4,1.7-0.5,2.4-0.6,3.9
	c0,1.1,0.7,1.9,0.9,2.9c0.5,3.2-0.8,6.5-0.3,9.8c0.3,1.3,0.6,2.6,1,3.8c0.2,1.4,0.1,2.9-0.2,4.3c-1,0.8-1.7,2.1-2.9,2.6
	c-0.7,0.5-1.4,1.1-1.9,1.8c-1.1,1.8,3.8,1.3,4.4,1.1c1.9-0.5,3.8-1.3,5.4-2.4c1.1-0.8,1.4-2.9,3-2.9c0.4,2.2-3.2,3.8-2.8,6.1
	c0.5,2.6,4.8,0.7,6,0.2c3.3-2.6,5.5-6.1,5.4-10.4c0-1.8,1.1-9.5,1.3-11.5c0.4-4.1-0.6-8.3-0.4-12.4c0.2-4.3,0.6-17.8,0.8-20.3
	c0.2-4,0-8.1-0.4-12.1c-1.2-7.3-3.3-14.4-6.1-21.2c-0.6-1.4-2.2-3.9-1.9-5.5c3.4-1.1,7.4,4,10.3-0.3C373.7,24.2,371.8,21.7,369.3,20
	L369.3,20z M58.9,67.4c-0.3-3.3-0.7-6.7-1.1-10.1s-0.9-6.6-1.4-9.5c-0.3-2.2-0.8-4.3-1.7-6.3l-1.1-2.2L37.3,81.6l1.8-0.1
	c2.6-0.4,15.3-2.6,20.2-5.1l0.6-0.4l-0.1-0.7C59.5,73.3,59.2,70.7,58.9,67.4z"/>
</svg>
