<svg id="Calque_1" data-name="Calque 1" xmlns="http://www.w3.org/2000/svg" viewBox="0 0 1000 1000"><defs><style>.cls-1{fill:#fff;}</style></defs><path class="cls-1" d="M722.65,999.32H277.75a58.4,58.4,0,0,0-7.5-1.67c-120-11.31-225-98.34-257.51-214.47C7.19,763.29,4.58,742.57.62,722.24V277.38c.78-5.09,1.67-10.14,2.32-15.25C22.36,113.55,147.61,1.47,297.49.5,432.77-.38,568.1.24,703.38.5A281.32,281.32,0,0,1,795.29,16c123.76,42.61,204.2,154.67,204.49,285.6q.44,198.5,0,397.06c0,9.72-.71,19.5-1.54,29.2C987.14,855,892.1,963.79,767.66,991.5,752.83,994.71,737.71,996.71,722.65,999.32ZM500.1,66.71c-64.73,0-129.45-.16-194.14,0a254.39,254.39,0,0,0-39.86,2.61c-117.5,19.23-198.91,115-199,234q-.21,196.58.18,393.08a245.32,245.32,0,0,0,5,50.41c23.46,109.92,116.62,185.61,229.07,186,132.68.47,265.35.16,398,0a217.54,217.54,0,0,0,35-2.61c118.1-19.6,198.93-115.08,199-235q.15-195.5-.18-391a250.8,250.8,0,0,0-4.8-50.33C905.26,143.58,811.92,67.6,699,67,632.77,66.45,566.43,66.71,500.1,66.71Z"/><path class="cls-1" d="M699.86,366.7c.42,108.91-89,199.07-197.94,199.51-110.8.44-201.23-88.62-201.31-198.1C300.61,256,388.9,167,500.44,166.52,610.12,166.18,699.45,255.82,699.86,366.7ZM500.77,233.61A133.17,133.17,0,1,0,633.34,367.38c0-.28,0-.56,0-.83A132.93,132.93,0,0,0,500.77,233.61Z"/><path class="cls-1" d="M499.78,630.75c36.23,2.61,72.86,2.61,108.65,8.13,56.22,8.68,105.07,34.67,147,73.22a33.1,33.1,0,0,1,3.26,46.7c-.15.18-.31.36-.47.53C746,773,725.85,774.24,711.1,761a235.64,235.64,0,0,0-112.27-57.34,141.78,141.78,0,0,0-27-3.71c-57.35-.31-115.11-6.12-172,4.41C359,711.92,323.37,731,292.61,758.81c-10,9.05-20.85,14.73-34.43,11.31a33.36,33.36,0,0,1-14.81-56.92,301.68,301.68,0,0,1,138.91-73C421,631.32,460.35,633.17,499.78,630.75Z"/></svg>